# xmcd
#
# Track frame offsets:
#	150
#	19165
#	37492
#	55747
#	71455
#	88452
#	104020
#	121440
#	138275
#	156617
#	174400
#	190372
#
# Disc length: 2794 seconds
#
# Revision: 4
# Processed by: cddbd v1.5.2PL0 Copyright (c) Steve Scherf et al.
# Submitted via: audiograbber 1.83.01
#
DISCID=b70ae80c
DTITLE=Benny Neyman - Bloemen Op IJs
DYEAR=1996
DGENRE=Salsa
TTITLE0=Benny Neyman - Bloemen Op IJs
TTITLE1=Benny Neyman - Kraters Op De Maan
TTITLE2=Benny Neyman - Ik Heb Je Zo Het Liefst
TTITLE3=Benny Neyman - Ondanks Alles
TTITLE4=Benny Neyman - Wie Het Leven Kent
TTITLE5=Benny Neyman - Is Het Waar
TTITLE6=Benny Neyman - Witte Strepen
TTITLE7=Benny Neyman - Omdat We Niet Zoveel Verschillen
TTITLE8=Benny Neyman - Van Ideaal Naar Carré
TTITLE9=Benny Neyman - Het Goud Dat Ik Vond
TTITLE10=Benny Neyman - Bang In Het Donker
TTITLE11=Benny Neyman and Maribelle - Liefde Slaat Een Brug
EXTD=YEAR: 1996
EXTT0=
EXTT1=
EXTT2=
EXTT3=
EXTT4=
EXTT5=
EXTT6=
EXTT7=
EXTT8=
EXTT9=
EXTT10=
EXTT11=
PLAYORDER=
